<svg xmlns="http://www.w3.org/2000/svg" width="48" height="48" fill="none" id="spotify"><path fill="#1ED760" d="M24 0C10.745 0 0 10.745 0 24s10.745 24 24 24 24-10.745 24-24S37.255 0 24 0Z"></path><path fill="#fff" d="M34.479 34.094a1.472 1.472 0 0 1-2.026.49c-5.55-3.392-12.537-4.158-20.766-2.279a1.472 1.472 0 1 1-.656-2.871c9.005-2.059 16.728-1.173 22.96 2.634.694.425.913 1.332.488 2.026zm2.892-6.436a1.844 1.844 0 0 1-2.535.607c-6.352-3.905-16.039-5.036-23.554-2.755a1.846 1.846 0 0 1-2.3-1.228 1.845 1.845 0 0 1 1.229-2.298c8.585-2.605 19.258-1.344 26.554 3.14a1.843 1.843 0 0 1 .606 2.534zm.25-6.702C30 16.43 17.433 16.015 10.159 18.222a2.21 2.21 0 1 1-1.284-4.231c8.35-2.534 22.23-2.045 31.003 3.162a2.21 2.21 0 0 1-2.257 3.803z"></path></svg>